<mxfile host="Electron" agent="Mozilla/5.0 (Windows NT 10.0; Win64; x64) AppleWebKit/537.36 (KHTML, like Gecko) draw.io/27.0.2 Chrome/134.0.6998.205 Electron/35.3.0 Safari/537.36" version="27.0.2">
  <diagram name="Page-1" id="Gwshyv_jeOcueGL8VkFU">
    <mxGraphModel dx="1426" dy="912" grid="1" gridSize="10" guides="1" tooltips="1" connect="1" arrows="1" fold="1" page="0" pageScale="1" pageWidth="1100" pageHeight="850" background="#ffffff" math="0" shadow="0">
      <root>
        <mxCell id="0" />
        <mxCell id="1" parent="0" />
        <mxCell id="nU70eZko2TNuGX9A642J-1" value="&lt;font style=&quot;color: rgb(0, 0, 0);&quot;&gt;crm_cust_info&lt;/font&gt;" style="swimlane;fontStyle=0;childLayout=stackLayout;horizontal=1;startSize=30;horizontalStack=0;resizeParent=1;resizeParentMax=0;resizeLast=0;collapsible=1;marginBottom=0;whiteSpace=wrap;html=1;rounded=1;fillColor=#cce5ff;strokeColor=#36393d;fontSize=26;" parent="1" vertex="1">
          <mxGeometry x="489" y="190" width="221" height="110" as="geometry" />
        </mxCell>
        <mxCell id="nU70eZko2TNuGX9A642J-2" value="&lt;font color=&quot;#000000&quot;&gt;cst_id&lt;/font&gt;" style="text;strokeColor=none;fillColor=none;align=left;verticalAlign=middle;spacingLeft=4;spacingRight=4;overflow=hidden;points=[[0,0.5],[1,0.5]];portConstraint=eastwest;rotatable=0;whiteSpace=wrap;html=1;fontSize=26;" parent="nU70eZko2TNuGX9A642J-1" vertex="1">
          <mxGeometry y="30" width="221" height="40" as="geometry" />
        </mxCell>
        <mxCell id="IIibRR-uK-6gdIO01NmL-13" value="&lt;font color=&quot;#000000&quot;&gt;cst_key&lt;/font&gt;" style="text;strokeColor=none;fillColor=none;align=left;verticalAlign=middle;spacingLeft=4;spacingRight=4;overflow=hidden;points=[[0,0.5],[1,0.5]];portConstraint=eastwest;rotatable=0;whiteSpace=wrap;html=1;fontSize=26;" parent="nU70eZko2TNuGX9A642J-1" vertex="1">
          <mxGeometry y="70" width="221" height="40" as="geometry" />
        </mxCell>
        <mxCell id="nU70eZko2TNuGX9A642J-5" value="&lt;div&gt;&lt;font style=&quot;color: rgb(0, 0, 0); font-size: 20px;&quot;&gt;Customer Information&lt;/font&gt;&lt;/div&gt;" style="text;html=1;align=center;verticalAlign=middle;whiteSpace=wrap;rounded=0;" parent="1" vertex="1">
          <mxGeometry x="489" y="160" width="219" height="30" as="geometry" />
        </mxCell>
        <mxCell id="IIibRR-uK-6gdIO01NmL-1" value="&lt;font style=&quot;color: rgb(0, 0, 0);&quot;&gt;crm_prd_info&lt;/font&gt;" style="swimlane;fontStyle=0;childLayout=stackLayout;horizontal=1;startSize=30;horizontalStack=0;resizeParent=1;resizeParentMax=0;resizeLast=0;collapsible=1;marginBottom=0;whiteSpace=wrap;html=1;rounded=1;fillColor=#cce5ff;strokeColor=#36393d;fontSize=26;" parent="1" vertex="1">
          <mxGeometry x="499" y="375" width="221" height="70" as="geometry" />
        </mxCell>
        <mxCell id="IIibRR-uK-6gdIO01NmL-2" value="&lt;font color=&quot;#000000&quot;&gt;prd_key&lt;/font&gt;" style="text;strokeColor=none;fillColor=none;align=left;verticalAlign=middle;spacingLeft=4;spacingRight=4;overflow=hidden;points=[[0,0.5],[1,0.5]];portConstraint=eastwest;rotatable=0;whiteSpace=wrap;html=1;fontSize=26;" parent="IIibRR-uK-6gdIO01NmL-1" vertex="1">
          <mxGeometry y="30" width="221" height="40" as="geometry" />
        </mxCell>
        <mxCell id="IIibRR-uK-6gdIO01NmL-3" value="&lt;div&gt;&lt;font style=&quot;color: rgb(0, 0, 0); font-size: 20px;&quot;&gt;Current &amp;amp; History Product Information&lt;/font&gt;&lt;/div&gt;" style="text;html=1;align=center;verticalAlign=middle;whiteSpace=wrap;rounded=0;" parent="1" vertex="1">
          <mxGeometry x="479.5" y="335" width="260" height="30" as="geometry" />
        </mxCell>
        <mxCell id="IIibRR-uK-6gdIO01NmL-4" value="&lt;font style=&quot;color: rgb(0, 0, 0);&quot;&gt;crm_sales_details&lt;/font&gt;" style="swimlane;fontStyle=0;childLayout=stackLayout;horizontal=1;startSize=30;horizontalStack=0;resizeParent=1;resizeParentMax=0;resizeLast=0;collapsible=1;marginBottom=0;whiteSpace=wrap;html=1;rounded=1;fillColor=#cce5ff;strokeColor=#36393d;fontSize=26;" parent="1" vertex="1">
          <mxGeometry x="160" y="285" width="221" height="110" as="geometry" />
        </mxCell>
        <mxCell id="IIibRR-uK-6gdIO01NmL-5" value="&lt;font color=&quot;#000000&quot;&gt;cst_id&lt;/font&gt;" style="text;strokeColor=none;fillColor=none;align=left;verticalAlign=middle;spacingLeft=4;spacingRight=4;overflow=hidden;points=[[0,0.5],[1,0.5]];portConstraint=eastwest;rotatable=0;whiteSpace=wrap;html=1;fontSize=26;" parent="IIibRR-uK-6gdIO01NmL-4" vertex="1">
          <mxGeometry y="30" width="221" height="40" as="geometry" />
        </mxCell>
        <mxCell id="IIibRR-uK-6gdIO01NmL-7" value="&lt;font color=&quot;#000000&quot;&gt;prd_key&lt;/font&gt;" style="text;strokeColor=none;fillColor=none;align=left;verticalAlign=middle;spacingLeft=4;spacingRight=4;overflow=hidden;points=[[0,0.5],[1,0.5]];portConstraint=eastwest;rotatable=0;whiteSpace=wrap;html=1;fontSize=26;" parent="IIibRR-uK-6gdIO01NmL-4" vertex="1">
          <mxGeometry y="70" width="221" height="40" as="geometry" />
        </mxCell>
        <mxCell id="IIibRR-uK-6gdIO01NmL-6" value="&lt;div&gt;&lt;font style=&quot;color: rgb(0, 0, 0); font-size: 20px;&quot;&gt;Transactional Records about Sales &amp;amp; Orders&lt;/font&gt;&lt;/div&gt;" style="text;html=1;align=center;verticalAlign=middle;whiteSpace=wrap;rounded=0;" parent="1" vertex="1">
          <mxGeometry x="150" y="245" width="240" height="30" as="geometry" />
        </mxCell>
        <mxCell id="IIibRR-uK-6gdIO01NmL-8" style="edgeStyle=orthogonalEdgeStyle;rounded=0;orthogonalLoop=1;jettySize=auto;html=1;entryX=0;entryY=0.5;entryDx=0;entryDy=0;strokeColor=#000000;" parent="1" source="IIibRR-uK-6gdIO01NmL-5" target="nU70eZko2TNuGX9A642J-2" edge="1">
          <mxGeometry relative="1" as="geometry" />
        </mxCell>
        <mxCell id="IIibRR-uK-6gdIO01NmL-9" style="edgeStyle=orthogonalEdgeStyle;rounded=0;orthogonalLoop=1;jettySize=auto;html=1;entryX=0;entryY=0.5;entryDx=0;entryDy=0;strokeColor=#000000;" parent="1" source="IIibRR-uK-6gdIO01NmL-7" target="IIibRR-uK-6gdIO01NmL-2" edge="1">
          <mxGeometry relative="1" as="geometry" />
        </mxCell>
        <mxCell id="IIibRR-uK-6gdIO01NmL-10" value="&lt;font style=&quot;color: rgb(0, 0, 0);&quot;&gt;erp_cust_az12&lt;/font&gt;" style="swimlane;fontStyle=0;childLayout=stackLayout;horizontal=1;startSize=30;horizontalStack=0;resizeParent=1;resizeParentMax=0;resizeLast=0;collapsible=1;marginBottom=0;whiteSpace=wrap;html=1;rounded=1;fillColor=#fad7ac;strokeColor=#b46504;fontSize=26;" parent="1" vertex="1">
          <mxGeometry x="1039.5" y="135" width="221" height="70" as="geometry" />
        </mxCell>
        <mxCell id="IIibRR-uK-6gdIO01NmL-11" value="&lt;font color=&quot;#000000&quot;&gt;cid&lt;/font&gt;" style="text;strokeColor=none;fillColor=none;align=left;verticalAlign=middle;spacingLeft=4;spacingRight=4;overflow=hidden;points=[[0,0.5],[1,0.5]];portConstraint=eastwest;rotatable=0;whiteSpace=wrap;html=1;fontSize=26;" parent="IIibRR-uK-6gdIO01NmL-10" vertex="1">
          <mxGeometry y="30" width="221" height="40" as="geometry" />
        </mxCell>
        <mxCell id="IIibRR-uK-6gdIO01NmL-12" value="&lt;div&gt;&lt;font style=&quot;color: rgb(0, 0, 0); font-size: 20px;&quot;&gt;Additional Customer Information&lt;/font&gt;&lt;/div&gt;" style="text;html=1;align=center;verticalAlign=middle;whiteSpace=wrap;rounded=0;fillColor=none;strokeColor=none;" parent="1" vertex="1">
          <mxGeometry x="1020" y="95" width="260" height="30" as="geometry" />
        </mxCell>
        <mxCell id="IIibRR-uK-6gdIO01NmL-14" style="edgeStyle=orthogonalEdgeStyle;rounded=0;orthogonalLoop=1;jettySize=auto;html=1;entryX=1;entryY=0.5;entryDx=0;entryDy=0;strokeColor=#000000;" parent="1" source="IIibRR-uK-6gdIO01NmL-11" target="IIibRR-uK-6gdIO01NmL-13" edge="1">
          <mxGeometry relative="1" as="geometry" />
        </mxCell>
        <mxCell id="IIibRR-uK-6gdIO01NmL-15" value="&lt;font style=&quot;color: rgb(0, 0, 0);&quot;&gt;erp_loc_a101&lt;/font&gt;" style="swimlane;fontStyle=0;childLayout=stackLayout;horizontal=1;startSize=30;horizontalStack=0;resizeParent=1;resizeParentMax=0;resizeLast=0;collapsible=1;marginBottom=0;whiteSpace=wrap;html=1;rounded=1;fillColor=#fad7ac;strokeColor=#b46504;fontSize=26;" parent="1" vertex="1">
          <mxGeometry x="1039.5" y="280" width="221" height="70" as="geometry" />
        </mxCell>
        <mxCell id="IIibRR-uK-6gdIO01NmL-16" value="&lt;font color=&quot;#000000&quot;&gt;cid&lt;/font&gt;" style="text;strokeColor=none;fillColor=none;align=left;verticalAlign=middle;spacingLeft=4;spacingRight=4;overflow=hidden;points=[[0,0.5],[1,0.5]];portConstraint=eastwest;rotatable=0;whiteSpace=wrap;html=1;fontSize=26;" parent="IIibRR-uK-6gdIO01NmL-15" vertex="1">
          <mxGeometry y="30" width="221" height="40" as="geometry" />
        </mxCell>
        <mxCell id="IIibRR-uK-6gdIO01NmL-17" value="&lt;div&gt;&lt;font style=&quot;color: rgb(0, 0, 0); font-size: 20px;&quot;&gt;Location of customer&lt;/font&gt;&lt;/div&gt;" style="text;html=1;align=center;verticalAlign=middle;whiteSpace=wrap;rounded=0;fillColor=none;strokeColor=none;" parent="1" vertex="1">
          <mxGeometry x="1020" y="240" width="260" height="30" as="geometry" />
        </mxCell>
        <mxCell id="IIibRR-uK-6gdIO01NmL-21" style="edgeStyle=orthogonalEdgeStyle;rounded=0;orthogonalLoop=1;jettySize=auto;html=1;exitX=0;exitY=0.5;exitDx=0;exitDy=0;entryX=1;entryY=0.25;entryDx=0;entryDy=0;entryPerimeter=0;strokeColor=#000000;" parent="1" source="IIibRR-uK-6gdIO01NmL-16" target="IIibRR-uK-6gdIO01NmL-13" edge="1">
          <mxGeometry relative="1" as="geometry" />
        </mxCell>
        <mxCell id="IIibRR-uK-6gdIO01NmL-22" value="&lt;font style=&quot;color: rgb(0, 0, 0);&quot;&gt;erp_px_cat_g1v2&lt;/font&gt;" style="swimlane;fontStyle=0;childLayout=stackLayout;horizontal=1;startSize=30;horizontalStack=0;resizeParent=1;resizeParentMax=0;resizeLast=0;collapsible=1;marginBottom=0;whiteSpace=wrap;html=1;rounded=1;fillColor=#fad7ac;strokeColor=#b46504;fontSize=26;" parent="1" vertex="1">
          <mxGeometry x="1039.5" y="465" width="221" height="70" as="geometry" />
        </mxCell>
        <mxCell id="IIibRR-uK-6gdIO01NmL-23" value="&lt;font color=&quot;#000000&quot;&gt;id&lt;/font&gt;" style="text;strokeColor=none;fillColor=none;align=left;verticalAlign=middle;spacingLeft=4;spacingRight=4;overflow=hidden;points=[[0,0.5],[1,0.5]];portConstraint=eastwest;rotatable=0;whiteSpace=wrap;html=1;fontSize=26;" parent="IIibRR-uK-6gdIO01NmL-22" vertex="1">
          <mxGeometry y="30" width="221" height="40" as="geometry" />
        </mxCell>
        <mxCell id="IIibRR-uK-6gdIO01NmL-24" value="&lt;div&gt;&lt;font style=&quot;color: rgb(0, 0, 0); font-size: 20px;&quot;&gt;Additional Product Information&lt;/font&gt;&lt;/div&gt;" style="text;html=1;align=center;verticalAlign=middle;whiteSpace=wrap;rounded=0;fillColor=none;strokeColor=none;" parent="1" vertex="1">
          <mxGeometry x="1020" y="425" width="260" height="30" as="geometry" />
        </mxCell>
        <mxCell id="IIibRR-uK-6gdIO01NmL-25" style="edgeStyle=orthogonalEdgeStyle;rounded=0;orthogonalLoop=1;jettySize=auto;html=1;exitX=0;exitY=0.5;exitDx=0;exitDy=0;entryX=1;entryY=0.5;entryDx=0;entryDy=0;strokeColor=#000000;" parent="1" edge="1">
          <mxGeometry relative="1" as="geometry">
            <mxPoint x="1039.5" y="510" as="sourcePoint" />
            <mxPoint x="720" y="420" as="targetPoint" />
            <Array as="points">
              <mxPoint x="790" y="510" />
              <mxPoint x="790" y="425" />
              <mxPoint x="720" y="425" />
            </Array>
          </mxGeometry>
        </mxCell>
        <mxCell id="IIibRR-uK-6gdIO01NmL-26" value="" style="rounded=1;whiteSpace=wrap;html=1;fillColor=none;dashed=1;strokeColor=#1A1A1A;movable=1;resizable=1;rotatable=1;deletable=1;editable=1;locked=0;connectable=1;" parent="1" vertex="1">
          <mxGeometry x="109.5" y="60" width="630" height="510" as="geometry" />
        </mxCell>
        <mxCell id="IIibRR-uK-6gdIO01NmL-27" value="" style="rounded=1;whiteSpace=wrap;html=1;fillColor=none;dashed=1;strokeColor=#1A1A1A;" parent="1" vertex="1">
          <mxGeometry x="950" y="60" width="440" height="530" as="geometry" />
        </mxCell>
        <mxCell id="IIibRR-uK-6gdIO01NmL-28" value="&lt;font style=&quot;color: rgb(0, 0, 0); font-size: 20px;&quot;&gt;CRM&lt;/font&gt;" style="text;html=1;align=center;verticalAlign=middle;whiteSpace=wrap;rounded=0;fillColor=#cce5ff;strokeColor=#36393d;" parent="1" vertex="1">
          <mxGeometry x="370" y="40" width="60" height="30" as="geometry" />
        </mxCell>
        <mxCell id="IIibRR-uK-6gdIO01NmL-29" value="&lt;font style=&quot;color: rgb(0, 0, 0); font-size: 20px;&quot;&gt;ERP&lt;/font&gt;" style="text;html=1;align=center;verticalAlign=middle;whiteSpace=wrap;rounded=0;fillColor=#ffcc99;strokeColor=#36393d;" parent="1" vertex="1">
          <mxGeometry x="1160" y="40" width="60" height="30" as="geometry" />
        </mxCell>
        <mxCell id="x4A5OgJG9IK8Lt2AEHI--1" value="&lt;font style=&quot;color: rgb(26, 26, 26); font-size: 18px;&quot;&gt;&lt;b style=&quot;&quot;&gt;CUSTOMER&lt;/b&gt;&lt;/font&gt;" style="text;html=1;strokeColor=#82b366;fillColor=#d5e8d4;align=center;verticalAlign=middle;whiteSpace=wrap;overflow=hidden;" parent="1" vertex="1">
          <mxGeometry x="1039.5" y="205" width="220.5" height="20" as="geometry" />
        </mxCell>
        <mxCell id="x4A5OgJG9IK8Lt2AEHI--2" value="&lt;font style=&quot;color: rgb(26, 26, 26); font-size: 18px;&quot;&gt;&lt;b style=&quot;&quot;&gt;PRODUCT&lt;/b&gt;&lt;/font&gt;" style="text;html=1;strokeColor=#ae4132;fillColor=#fad9d5;align=center;verticalAlign=middle;whiteSpace=wrap;overflow=hidden;" parent="1" vertex="1">
          <mxGeometry x="499.5" y="445" width="220.5" height="20" as="geometry" />
        </mxCell>
        <mxCell id="x4A5OgJG9IK8Lt2AEHI--3" value="&lt;font style=&quot;color: rgb(26, 26, 26); font-size: 18px;&quot;&gt;&lt;b style=&quot;&quot;&gt;PRODUCT&lt;/b&gt;&lt;/font&gt;" style="text;html=1;strokeColor=#ae4132;fillColor=#fad9d5;align=center;verticalAlign=middle;whiteSpace=wrap;overflow=hidden;" parent="1" vertex="1">
          <mxGeometry x="1040" y="535" width="220.5" height="20" as="geometry" />
        </mxCell>
        <mxCell id="x4A5OgJG9IK8Lt2AEHI--4" value="&lt;font style=&quot;color: rgb(26, 26, 26); font-size: 18px;&quot;&gt;&lt;b style=&quot;&quot;&gt;CUSTOMER&lt;/b&gt;&lt;/font&gt;" style="text;html=1;strokeColor=#82b366;fillColor=#d5e8d4;align=center;verticalAlign=middle;whiteSpace=wrap;overflow=hidden;" parent="1" vertex="1">
          <mxGeometry x="489.5" y="300" width="220.5" height="20" as="geometry" />
        </mxCell>
        <mxCell id="x4A5OgJG9IK8Lt2AEHI--5" value="&lt;font style=&quot;color: rgb(26, 26, 26); font-size: 18px;&quot;&gt;&lt;b style=&quot;&quot;&gt;CUSTOMER&lt;/b&gt;&lt;/font&gt;" style="text;html=1;strokeColor=#82b366;fillColor=#d5e8d4;align=center;verticalAlign=middle;whiteSpace=wrap;overflow=hidden;" parent="1" vertex="1">
          <mxGeometry x="1039.5" y="345" width="220.5" height="20" as="geometry" />
        </mxCell>
        <mxCell id="x4A5OgJG9IK8Lt2AEHI--6" value="&lt;font style=&quot;color: rgb(26, 26, 26); font-size: 18px;&quot;&gt;&lt;b style=&quot;&quot;&gt;SALES&lt;/b&gt;&lt;/font&gt;" style="text;html=1;strokeColor=#56517e;fillColor=#d0cee2;align=center;verticalAlign=middle;whiteSpace=wrap;overflow=hidden;" parent="1" vertex="1">
          <mxGeometry x="159.75" y="390" width="220.5" height="20" as="geometry" />
        </mxCell>
      </root>
    </mxGraphModel>
  </diagram>
</mxfile>
